<?xml version="1.0" encoding="utf-8"?>
<!-- Generator: Adobe Illustrator 13.0.0, SVG Export Plug-In  -->
<!DOCTYPE svg PUBLIC "-//W3C//DTD SVG 1.1//EN" "http://www.w3.org/Graphics/SVG/1.1/DTD/svg11.dtd" [
	<!ENTITY ns_flows "http://ns.adobe.com/Flows/1.0/">
]>
<svg version="1.1"
	 xmlns="http://www.w3.org/2000/svg" xmlns:xlink="http://www.w3.org/1999/xlink" xmlns:a="http://ns.adobe.com/AdobeSVGViewerExtensions/3.0/"
	 x="0px" y="0px" width="359px" height="51px" viewBox="-0.77 -0.89 359 51" enable-background="new -0.77 -0.89 359 51"
	 xml:space="preserve">
<defs>
</defs>
<path fill="#29B9F5" d="M35.87,20.66c0,0,15.64-0.43,15.64,3.93s-15.87,4.1-15.87,4.1L19.06,48.28l-5.19,0.84l12.33-20.69
	L8.49,26.87l-6.52,5.77L0,32.81l1.93-8.07L0,16.37l1.97,0.17l6.52,6.32l17.72-2.1L15.14,0l3.93,0.91L35.87,20.66z"/>
<path fill="#29B9F5" d="M147.07,19.81V44.5h6.23V19.81H147.07z M141.31,5.76h-19.79c-2.37,0-4.28,2.12-4.28,4.74v31.16
	c0,2.62,0.2,2.84,2.57,2.84h23.22c2.36,0,2.57-0.23,2.57-2.84V10.5C145.59,7.88,143.67,5.76,141.31,5.76z M126.4,29.94h-6.13v-7.68
	h6.13V29.94z M126.4,20.17h-6.13v-7.68h6.13V20.17z M134.57,29.94h-6.13v-7.68h6.13V29.94z M134.57,20.17h-6.13v-7.68h6.13V20.17z
	 M142.75,20.17h-6.13v-7.68h6.13V20.17z"/>
<path fill="#29B9F5" d="M257.63,18.45c0.7-0.3,1.2-1.01,1.2-1.84c0-0.01,0-0.02,0-0.03h4.58l0-1.32L246.09,2.8h-2.38l-17.39,12.53
	v1.26h4.48c0,0.01,0,0.02,0,0.03c0,1.01,0.73,1.83,1.67,1.96v19.71h-2.54l-0.32,0.32v5.26h30.6v-5.2l-0.38-0.38h-2.19V18.45z
	 M236.36,38.28V18.46c0.71-0.29,1.21-1.01,1.21-1.85c0-0.01,0-0.02,0-0.03h3.72c0,0.01,0,0.02,0,0.03c0,1.01,0.73,1.83,1.67,1.97
	v19.71H236.36z M246.85,38.28V18.46c0.71-0.29,1.21-1.01,1.21-1.85c0-0.01,0-0.02,0-0.03h4c0,0.01,0,0.02,0,0.03
	c0,1.01,0.74,1.84,1.68,1.97v19.71H246.85z"/>
<path fill="#FFFFFF" d="M340.41,22.39c-3.66,0-6.63,2.97-6.63,6.63c0,3.66,2.97,6.63,6.63,6.63s6.63-2.97,6.63-6.63
	C347.04,25.36,344.07,22.39,340.41,22.39z M356.22,16.3h-6.21l-3.61-3.61h-12.54l-3.61,3.61h-5.87l-1.48,1.48v21.91l1.82,1.82h31.59
	l1.63-1.63V18.01L356.22,16.3z M340.41,37.36c-4.61,0-8.34-3.73-8.34-8.34c0-4.61,3.74-8.34,8.34-8.34s8.34,3.73,8.34,8.34
	C348.76,33.63,345.02,37.36,340.41,37.36z"/>
</svg>
