<?xml version="1.0" encoding="utf-8"?>
<!-- Generator: Adobe Illustrator 13.0.0, SVG Export Plug-In  -->
<!DOCTYPE svg PUBLIC "-//W3C//DTD SVG 1.1//EN" "http://www.w3.org/Graphics/SVG/1.1/DTD/svg11.dtd" [
	<!ENTITY ns_flows "http://ns.adobe.com/Flows/1.0/">
]>
<svg version="1.1"
	 xmlns="http://www.w3.org/2000/svg" xmlns:xlink="http://www.w3.org/1999/xlink" xmlns:a="http://ns.adobe.com/AdobeSVGViewerExtensions/3.0/"
	 x="0px" y="0px" width="42px" height="43px" viewBox="-0.04 -0.94 42 43" enable-background="new -0.04 -0.94 42 43"
	 xml:space="preserve">
<defs>
</defs>
<circle fill="#29B9F5" cx="20.91" cy="20.91" r="20.91"/>
<path fill="#FFFFFF" d="M20.9,18.6c-1.27,0-2.3,1.03-2.3,2.3s1.03,2.3,2.3,2.3c1.27,0,2.3-1.03,2.3-2.3S22.17,18.6,20.9,18.6z
	 M20.9,22.04c-0.63,0-1.13-0.51-1.13-1.13c0-0.63,0.51-1.13,1.13-1.13c0.63,0,1.13,0.51,1.13,1.13
	C22.03,21.53,21.52,22.04,20.9,22.04z"/>
<rect x="27.27" y="6.82" transform="matrix(0.6421 0.7666 -0.7666 0.6421 21.384 -16.2668)" fill="#FFFFFF" width="1.69" height="15.91"/>
<polygon fill="#FFFFFF" points="22.01,22.08 22.48,20.49 32.9,23.6 32.43,25.17 "/>
</svg>
