<?xml version="1.0" encoding="utf-8"?>
<!-- Generator: Adobe Illustrator 13.0.0, SVG Export Plug-In . SVG Version: 6.00 Build 14948)  -->
<!DOCTYPE svg PUBLIC "-//W3C//DTD SVG 1.1//EN" "http://www.w3.org/Graphics/SVG/1.1/DTD/svg11.dtd">
<svg version="1.1" id="图层_1" xmlns="http://www.w3.org/2000/svg" xmlns:xlink="http://www.w3.org/1999/xlink" x="0px" y="0px"
	 width="40px" height="40px" viewBox="-4.75 -3.6 40 40" enable-background="new -4.75 -3.6 40 40" xml:space="preserve">
<path fill="#1470E4" d="M25.6,12.06v21.18h5.351V12.06H25.6z M20.65,0H3.67C1.65,0,0,1.82,0,4.07v26.731
	c0,2.25,0.18,2.439,2.2,2.439h19.92c2.03,0,2.2-0.189,2.2-2.439V4.07C24.33,1.82,22.68,0,20.65,0z M7.86,20.75H2.6v-6.59h5.26V20.75
	z M7.86,12.37H2.6v-6.6h5.26V12.37z M14.88,20.75H9.62v-6.59h5.26V20.75z M14.88,12.37H9.62v-6.6h5.26V12.37z M21.891,12.37H16.63
	v-6.6h5.261V12.37z"/>
</svg>
