<?xml version="1.0" encoding="utf-8"?>
<!-- Generator: Adobe Illustrator 13.0.0, SVG Export Plug-In  -->
<!DOCTYPE svg PUBLIC "-//W3C//DTD SVG 1.1//EN" "http://www.w3.org/Graphics/SVG/1.1/DTD/svg11.dtd" [
	<!ENTITY ns_flows "http://ns.adobe.com/Flows/1.0/">
]>
<svg version="1.1"
	 xmlns="http://www.w3.org/2000/svg" xmlns:xlink="http://www.w3.org/1999/xlink" xmlns:a="http://ns.adobe.com/AdobeSVGViewerExtensions/3.0/"
	 x="0px" y="0px" width="40px" height="40px" viewBox="-4.21 -3.46 40 40" enable-background="new -4.21 -3.46 40 40"
	 xml:space="preserve">
<defs>
</defs>
<path fill="#1470E4" d="M26.67,12.98c0.59-0.25,1.02-0.83,1.02-1.52c0-0.01,0-0.02,0-0.03h3.9v-1.09L16.84,0h-2.03L0,10.38v1.04
	h3.81c0,0.01,0,0.02,0,0.03c0,0.83,0.61,1.51,1.42,1.63v16.33H3.07l-0.27,0.27v4.36h26.07v-4.31l-0.33-0.32h-1.86V12.98z
	 M8.55,29.41V12.98c0.6-0.25,1.04-0.83,1.04-1.53c0-0.01,0-0.02,0-0.03h3.17c0,0.01,0,0.02,0,0.03c0,0.83,0.61,1.51,1.42,1.63V29.4
	L8.55,29.41L8.55,29.41z M17.49,29.41V12.98c0.6-0.25,1.04-0.83,1.04-1.53c0-0.01,0-0.02,0-0.03h3.41c0,0.01,0,0.02,0,0.03
	c0,0.83,0.62,1.52,1.44,1.63V29.4L17.49,29.41L17.49,29.41L17.49,29.41z"/>
</svg>
